<?xml version="1.0" encoding="UTF-8" standalone="no"?>
<svg width="45px" height="41px" viewBox="0 0 45 41" version="1.1" xmlns="http://www.w3.org/2000/svg" xmlns:xlink="http://www.w3.org/1999/xlink" xmlns:sketch="http://www.bohemiancoding.com/sketch/ns">
    <!-- Generator: Sketch 3.3.3 (12081) - http://www.bohemiancoding.com/sketch -->
    <title>backend</title>
    <desc>Created with Sketch.</desc>
    <defs></defs>
    <g id="Mockups" stroke="none" stroke-width="1" fill="none" fill-rule="evenodd" sketch:type="MSPage">
        <g id="Docs-Home" sketch:type="MSArtboardGroup" transform="translate(-1058.000000, -347.000000)">
            <g id="backend" sketch:type="MSLayerGroup" transform="translate(1058.000000, 347.000000)">
                <path d="M10.8215446,33.744566 L6.35350318,31.182066 L20.2569745,7.26041667 L24.7250159,9.82291667 L10.8215446,33.744566 Z" id="Fill-53" fill="#44C7F4" sketch:type="MSShapeGroup"></path>
                <path d="M34.1582484,33.744566 L20.2547771,9.82291667 L24.7228185,7.26041667 L38.6262898,31.182066 L34.1582484,33.744566 Z" id="Fill-54" fill="#EC5424" sketch:type="MSShapeGroup"></path>
                <path d="M31.0987261,8.54166667 C31.0987261,13.2590868 27.2489809,17.0833333 22.5,17.0833333 C17.7510669,17.0833333 13.9012739,13.2590868 13.9012739,8.54166667 C13.9012739,3.82424653 17.7510669,0 22.5,0 C27.2489809,0 31.0987261,3.82424653 31.0987261,8.54166667" id="Fill-55" fill="#16214D" sketch:type="MSShapeGroup"></path>
                <path d="M17.1974522,32.4583333 C17.1974522,37.1757535 13.347707,41 8.59872611,41 C3.84979299,41 0,37.1757535 0,32.4583333 C0,27.7409132 3.84979299,23.9166667 8.59872611,23.9166667 C13.347707,23.9166667 17.1974522,27.7409132 17.1974522,32.4583333" id="Fill-56" fill="#EC5424" sketch:type="MSShapeGroup"></path>
                <path d="M45,32.4583333 C45,27.7409132 41.150207,23.9166667 36.4012739,23.9166667 C31.6523408,23.9166667 27.8025478,27.7409132 27.8025478,32.4583333 C27.8025478,37.1757535 31.6523408,41 36.4012739,41 C41.150207,41 45,37.1757535 45,32.4583333" id="Fill-57" fill="#44C7F4" sketch:type="MSShapeGroup"></path>
            </g>
        </g>
    </g>
</svg>