<?xml version="1.0" encoding="UTF-8" standalone="no"?>
<svg width="45px" height="45px" viewBox="0 0 45 45" version="1.1" xmlns="http://www.w3.org/2000/svg" xmlns:xlink="http://www.w3.org/1999/xlink" xmlns:sketch="http://www.bohemiancoding.com/sketch/ns">
    <!-- Generator: Sketch 3.3.3 (12081) - http://www.bohemiancoding.com/sketch -->
    <title>webapp</title>
    <desc>Created with Sketch.</desc>
    <defs></defs>
    <g id="Mockups" stroke="none" stroke-width="1" fill="none" fill-rule="evenodd" sketch:type="MSPage">
        <g id="Docs-Home" sketch:type="MSArtboardGroup" transform="translate(-621.000000, -346.000000)">
            <g id="Group" sketch:type="MSLayerGroup" transform="translate(118.000000, 296.000000)">
                <g id="webapp" transform="translate(503.000000, 50.000000)" sketch:type="MSShapeGroup">
                    <path d="M33.4980703,3.03996613 C29.8699501,0.97546722 25.9082793,-0.0035578174 22,9.71395017e-06 L22,15.11202 C23.3027952,15.1108134 24.6233167,15.4370326 25.8326901,16.125199 C29.4989776,18.2114178 30.7551418,22.8318431 28.6384322,26.4452277 L41.9152434,34 C48.2654786,23.1597937 44.496986,9.29851786 33.4980703,3.03996613" id="Fill-49" fill="#16214D"></path>
                    <path d="M22.5,0 C10.0735937,0 0,10.1476962 0,22.6655124 C0,26.7946756 1.09635417,30.6658087 3.01140625,34 L16.0039062,26.4436225 C15.3655729,25.3322254 15,24.0419176 15,22.6655124 C15,18.492907 18.3578646,15.1103416 22.5,15.1103416 C26.6421354,15.1103416 30,11.7277762 30,7.5551708 C30,3.38256539 26.6421354,0 22.5,0" id="Fill-50" fill="#EC5424"></path>
                    <path d="M29.001069,25.834291 C28.364452,26.9630625 27.437483,27.941143 26.253616,28.6393461 C22.6646529,30.7559389 18.0754554,29.499844 16.0033366,25.8337587 C13.9312698,22.1676734 9.34207227,20.9115785 5.7531092,23.0281714 C2.16414612,25.1448174 0.934475267,29.8326309 3.00654205,33.4987162 C9.22284662,44.4969722 22.9904391,48.2653101 33.7573283,41.9154251 C37.3089292,39.820869 40.0901489,36.8868404 42,33.5004728 L29.001069,25.834291 Z" id="Fill-51" fill="#44C7F4"></path>
                    <path d="M31.7506261,35.9941133 C28.1640375,33.9233669 26.9351802,29.3372612 29.0058761,25.7506233 C31.0766241,22.1640374 35.6627853,20.935181 39.2493739,23.0058754 C42.8359625,25.0766217 44.0648198,29.6627795 41.9941239,33.2493654 C39.9233759,36.8360033 35.3372147,38.0648076 31.7506261,35.9941133" id="Fill-52" fill="#16214D"></path>
                </g>
            </g>
        </g>
    </g>
</svg>